<svg xmlns="http://www.w3.org/2000/svg" xmlns:xlink="http://www.w3.org/1999/xlink" width="333" zoomAndPan="magnify" viewBox="0 0 249.75 48" height="64" preserveAspectRatio="xMidYMid meet" version="1.0"><defs><g/><clipPath id="5d983da3c2"><path d="M 2.425781 0 L 35 0 L 35 46.285156 L 2.425781 46.285156 Z M 2.425781 0 " clip-rule="nonzero"/></clipPath></defs><g clip-path="url(#5d983da3c2)"><path fill="#c09e5b" d="M 21.671875 7.992188 C 21.671875 3.492188 23.617188 1.246094 24.695312 0.222656 L 24.578125 0.0078125 C 7.765625 0 3.308594 0 2.308594 0 L 2.1875 0 C 2.1875 0 2.144531 0 2.121094 0 C 2.117188 0 2.101562 0 2.09375 0 C 2.0625 0 2.050781 0 2.050781 0 L 2.050781 2.488281 L 3.183594 2.488281 L 3.183594 24.386719 C 3.183594 27.347656 3.273438 31.414062 4.945312 35.207031 C 6.589844 38.933594 8.933594 41.710938 12.992188 41.710938 C 17.050781 41.710938 21.378906 37.296875 16.242188 30.398438 C 12.417969 25.261719 5.734375 20.609375 5.734375 9.964844 C 5.734375 5.539062 7.339844 3.269531 8.03125 2.503906 L 12.617188 2.503906 C 12.101562 3.210938 10.664062 5.507812 10.664062 9.433594 C 10.664062 22.265625 23.941406 26.441406 23.941406 35.855469 C 23.941406 40.347656 20.359375 45.113281 16.351562 45.722656 L 16.285156 46.128906 C 17.355469 46.535156 18.535156 46.84375 19.640625 47.035156 C 21.207031 46.96875 34.382812 43.332031 34.382812 31.882812 C 34.382812 20.4375 21.671875 17.816406 21.671875 7.992188 Z M 5.894531 21.183594 C 5.894531 21.183594 6.019531 21.117188 6.050781 21.109375 C 8.078125 25.933594 13.234375 30.199219 14.921875 34.234375 C 16.125 37.105469 15.035156 39.125 13.035156 39.125 C 8.429688 39.125 5.894531 32.363281 5.894531 24.710938 L 5.894531 21.175781 Z M 23.40625 43.492188 C 23.359375 43.449219 23.34375 43.417969 23.316406 43.382812 C 25.070312 42.019531 27.148438 39.433594 27.148438 35.796875 C 27.148438 25.019531 13.625 20.945312 13.625 9.050781 C 13.625 5.457031 15.09375 3.195312 15.621094 2.503906 L 19.976562 2.503906 C 19.527344 3.292969 18.667969 5.308594 18.667969 8.292969 C 18.667969 19.15625 31.328125 22.382812 31.328125 32.3125 C 31.328125 38.136719 26.394531 42.4375 23.410156 43.5 Z M 23.40625 43.492188 " fill-opacity="1" fill-rule="nonzero"/></g><path fill="#c09e5b" d="M 34.304688 0 C 32.359375 0 30.765625 0.398438 29.328125 1.503906 C 28.992188 1.761719 26.492188 3.777344 26.492188 7.085938 C 26.492188 11.09375 29.136719 14.097656 32.027344 16.984375 C 34.265625 19.222656 35.351562 20.644531 35.8125 21.417969 L 36.101562 21.335938 L 36.101562 2.488281 L 37.242188 2.488281 C 37.242188 2.4375 37.242188 -0.0742188 37.242188 0 Z M 33.410156 14.863281 C 33.410156 14.863281 33.316406 14.898438 33.285156 14.914062 C 32.085938 13.316406 29.078125 10.523438 29.078125 7.054688 C 29.078125 5.050781 30.433594 3.242188 31.863281 2.738281 C 32.292969 2.59375 32.703125 2.578125 33.152344 2.578125 C 33.316406 2.578125 33.242188 2.578125 33.410156 2.578125 L 33.410156 14.871094 Z M 33.410156 14.863281 " fill-opacity="1" fill-rule="nonzero"/><path fill="#ffffff" d="M 44.582031 11.636719 L 45.527344 11.570312 C 45.554688 11.679688 45.578125 11.8125 45.609375 11.910156 C 45.902344 12.867188 46.691406 13.675781 47.796875 13.675781 C 48.796875 13.675781 49.851562 13.03125 49.851562 11.800781 C 49.851562 10.472656 48.652344 9.839844 47.066406 9.191406 C 45.621094 8.59375 44.378906 7.625 44.378906 5.964844 C 44.378906 4.085938 46.050781 3.019531 47.996094 3.019531 C 48.835938 3.019531 49.832031 3.210938 50.671875 3.558594 C 50.765625 3.585938 50.882812 3.636719 50.980469 3.667969 L 50.765625 5.722656 L 49.808594 5.671875 C 49.808594 5.574219 49.777344 5.457031 49.757812 5.363281 C 49.542969 4.582031 48.835938 4.035156 47.839844 4.035156 C 46.847656 4.035156 46.085938 4.601562 46.085938 5.589844 C 46.085938 6.464844 46.707031 6.953125 48.222656 7.5625 C 49.941406 8.265625 51.722656 9.523438 51.722656 11.519531 C 51.722656 13.515625 49.832031 14.746094 47.6875 14.746094 C 46.566406 14.746094 45.644531 14.371094 44.671875 13.882812 L 44.574219 11.628906 Z M 44.582031 11.636719 " fill-opacity="1" fill-rule="nonzero"/><path fill="#ffffff" d="M 57.148438 13.921875 C 56.59375 14.421875 55.945312 14.746094 55.152344 14.746094 C 53.722656 14.746094 53.367188 13.640625 53.367188 12.410156 L 53.367188 7.484375 L 52.570312 7.484375 L 52.570312 6.347656 C 53.410156 6.347656 53.734375 5.730469 53.773438 5.023438 L 53.800781 4.101562 L 55.179688 4.101562 L 55.179688 6.355469 L 57.074219 6.355469 L 57.074219 6.761719 C 57.074219 7.261719 56.699219 7.492188 56.234375 7.492188 L 55.179688 7.492188 L 55.179688 12.566406 C 55.179688 13.160156 55.421875 13.683594 56.003906 13.683594 C 56.328125 13.683594 56.640625 13.507812 56.867188 13.359375 L 57.140625 13.929688 Z M 57.148438 13.921875 " fill-opacity="1" fill-rule="nonzero"/><path fill="#ffffff" d="M 64.503906 13.207031 C 63.839844 14.207031 62.636719 14.746094 61.453125 14.746094 C 58.84375 14.746094 57.414062 12.585938 57.414062 10.195312 C 57.414062 8.019531 59.117188 6.171875 61.339844 6.171875 C 62.75 6.171875 64.207031 6.851562 64.554688 8.167969 C 64.636719 8.410156 64.6875 8.667969 64.6875 8.964844 C 64.6875 10.421875 63.417969 10.988281 61.945312 10.988281 L 59.335938 10.988281 C 59.402344 12.316406 60.292969 13.566406 61.671875 13.648438 C 62.777344 13.648438 63.402344 13.390625 64.214844 12.691406 L 64.507812 13.207031 Z M 60.332031 9.914062 C 61.621094 9.914062 62.953125 9.914062 62.953125 8.726562 C 62.953125 7.933594 62.335938 7.203125 61.429688 7.203125 C 60.035156 7.203125 59.320312 8.675781 59.320312 9.90625 L 60.324219 9.90625 Z M 60.332031 9.914062 " fill-opacity="1" fill-rule="nonzero"/><path fill="#ffffff" d="M 66.191406 3.59375 C 66.191406 3.253906 65.878906 3.21875 65.636719 3.21875 L 65.488281 3.21875 L 65.488281 2.488281 L 66.785156 2.488281 C 67.789062 2.488281 68.003906 2.992188 68.003906 3.882812 L 68.003906 13.050781 C 68.003906 13.457031 68.113281 13.566406 68.4375 13.730469 L 68.4375 14.539062 L 65.726562 14.539062 L 65.726562 13.730469 C 66.050781 13.566406 66.183594 13.457031 66.183594 13.050781 L 66.183594 3.59375 Z M 66.191406 3.59375 " fill-opacity="1" fill-rule="nonzero"/><path fill="#ffffff" d="M 70.214844 3.59375 C 70.214844 3.253906 69.902344 3.21875 69.660156 3.21875 L 69.511719 3.21875 L 69.511719 2.488281 L 70.808594 2.488281 C 71.8125 2.488281 72.027344 2.992188 72.027344 3.882812 L 72.027344 13.050781 C 72.027344 13.457031 72.136719 13.566406 72.460938 13.730469 L 72.460938 14.539062 L 69.75 14.539062 L 69.75 13.730469 C 70.074219 13.566406 70.207031 13.457031 70.207031 13.050781 L 70.207031 3.59375 Z M 70.214844 3.59375 " fill-opacity="1" fill-rule="nonzero"/><path fill="#ffffff" d="M 80.441406 13.207031 C 79.777344 14.207031 78.578125 14.746094 77.390625 14.746094 C 74.78125 14.746094 73.351562 12.585938 73.351562 10.195312 C 73.351562 8.019531 75.054688 6.171875 77.28125 6.171875 C 78.6875 6.171875 80.152344 6.851562 80.492188 8.167969 C 80.574219 8.410156 80.625 8.667969 80.625 8.964844 C 80.625 10.421875 79.359375 10.988281 77.882812 10.988281 L 75.277344 10.988281 C 75.34375 12.316406 76.234375 13.566406 77.613281 13.648438 C 78.71875 13.648438 79.34375 13.390625 80.152344 12.691406 L 80.449219 13.207031 Z M 76.269531 9.914062 C 77.558594 9.914062 78.894531 9.914062 78.894531 8.726562 C 78.894531 7.933594 78.273438 7.203125 77.367188 7.203125 C 75.976562 7.203125 75.261719 8.675781 75.261719 9.90625 L 76.261719 9.90625 Z M 76.269531 9.914062 " fill-opacity="1" fill-rule="nonzero"/><path fill="#ffffff" d="M 81.761719 14.554688 L 81.761719 13.730469 C 81.871094 13.730469 81.972656 13.699219 82.035156 13.632812 C 82.179688 13.523438 82.210938 13.257812 82.210938 13.066406 L 82.210938 7.34375 C 82.210938 7.113281 82.078125 7.003906 81.886719 6.96875 C 81.804688 6.9375 81.710938 6.9375 81.613281 6.9375 L 81.613281 6.222656 L 82.828125 6.222656 C 83.75 6.222656 83.949219 6.722656 83.964844 7.292969 C 84.5625 6.5625 85.355469 6.238281 86.285156 6.238281 C 88.082031 6.238281 88.863281 7.46875 88.863281 9.058594 L 88.863281 13.066406 C 88.863281 13.257812 88.878906 13.484375 89.042969 13.632812 C 89.109375 13.699219 89.1875 13.730469 89.3125 13.730469 L 89.3125 14.554688 L 86.585938 14.554688 L 86.585938 13.730469 C 86.992188 13.730469 87.042969 13.40625 87.042969 13.066406 L 87.042969 9.015625 C 87.042969 8.203125 86.640625 7.34375 85.71875 7.34375 C 84.890625 7.34375 84.230469 7.992188 83.984375 8.75 L 83.984375 13.058594 C 83.984375 13.191406 83.984375 13.351562 84.050781 13.480469 C 84.066406 13.53125 84.105469 13.574219 84.148438 13.625 C 84.230469 13.691406 84.308594 13.722656 84.441406 13.722656 L 84.441406 14.546875 L 81.769531 14.546875 Z M 81.761719 14.554688 " fill-opacity="1" fill-rule="nonzero"/><path fill="#ffffff" d="M 89.703125 2.488281 L 91.015625 2.488281 C 92.054688 2.488281 92.230469 2.992188 92.230469 3.835938 L 92.230469 6.9375 C 92.6875 6.402344 93.476562 6.179688 94.207031 6.179688 C 96.574219 6.179688 97.804688 8.382812 97.804688 10.488281 C 97.804688 12.867188 96.394531 14.753906 93.714844 14.753906 C 91.914062 14.753906 90.457031 13.890625 90.457031 12.011719 L 90.457031 3.59375 C 90.457031 3.367188 90.292969 3.285156 90.132812 3.253906 C 90.035156 3.226562 89.941406 3.226562 89.835938 3.226562 L 89.691406 3.226562 L 89.691406 2.496094 Z M 92.230469 12.070312 C 92.230469 13.09375 92.703125 13.742188 93.660156 13.742188 C 95.378906 13.742188 95.851562 11.703125 95.851562 10.328125 C 95.851562 9.082031 95.414062 7.34375 93.875 7.34375 C 93.257812 7.34375 92.527344 7.695312 92.238281 8.265625 L 92.238281 12.070312 Z M 92.230469 12.070312 " fill-opacity="1" fill-rule="nonzero"/><path fill="#ffffff" d="M 102.734375 6.171875 C 105.113281 6.171875 106.785156 8.132812 106.785156 10.421875 C 106.785156 12.710938 105.113281 14.753906 102.734375 14.753906 C 100.351562 14.753906 98.644531 12.660156 98.644531 10.378906 C 98.644531 8.09375 100.375 6.179688 102.734375 6.179688 Z M 102.71875 13.722656 C 104.40625 13.722656 104.773438 11.710938 104.773438 10.464844 C 104.773438 9.117188 104.339844 7.1875 102.652344 7.1875 C 100.964844 7.1875 100.609375 9.039062 100.609375 10.347656 C 100.609375 11.5625 100.964844 13.722656 102.71875 13.722656 Z M 102.71875 13.722656 " fill-opacity="1" fill-rule="nonzero"/><path fill="#ffffff" d="M 107.691406 12.367188 L 108.585938 12.367188 C 108.828125 13.273438 109.503906 13.839844 110.464844 13.839844 C 111.207031 13.839844 111.871094 13.484375 111.871094 12.785156 C 111.871094 12.316406 111.5625 12.027344 111.171875 11.800781 C 110.914062 11.652344 110.632812 11.527344 110.359375 11.394531 C 109.09375 10.855469 107.484375 10.164062 107.484375 8.558594 C 107.484375 7.128906 108.730469 6.179688 110.582031 6.179688 C 111.324219 6.179688 112.296875 6.328125 112.960938 6.597656 L 113.058594 6.628906 L 113.058594 8.425781 L 112.113281 8.425781 C 111.886719 7.617188 111.289062 7.144531 110.425781 7.144531 C 109.5625 7.144531 109.128906 7.644531 109.128906 8.085938 C 109.128906 8.734375 110.019531 9.234375 110.925781 9.65625 C 111.121094 9.75 111.316406 9.832031 111.507812 9.929688 C 112.59375 10.429688 113.601562 10.953125 113.601562 12.328125 C 113.601562 14.4375 111.28125 14.746094 110.324219 14.746094 C 109.367188 14.746094 108.570312 14.488281 107.757812 14.082031 L 107.664062 14.03125 L 107.664062 12.359375 Z M 107.691406 12.367188 " fill-opacity="1" fill-rule="nonzero"/><path fill="#ffffff" d="M 121.472656 13.109375 L 121.472656 13.125 C 120.742188 14.03125 119.703125 14.746094 118.488281 14.746094 C 115.894531 14.746094 114.421875 12.867188 114.421875 10.496094 C 114.421875 8.125 115.945312 6.164062 118.488281 6.164062 C 119.476562 6.164062 120.175781 6.296875 121 6.679688 C 121.097656 6.710938 121.191406 6.761719 121.3125 6.8125 L 121.3125 8.417969 L 120.390625 8.417969 C 120.335938 8.308594 120.308594 8.191406 120.242188 8.09375 C 119.949219 7.496094 119.417969 7.109375 118.671875 7.109375 C 116.96875 7.109375 116.402344 9.039062 116.402344 10.429688 C 116.402344 11.820312 117.023438 13.625 118.804688 13.625 C 119.644531 13.625 120.332031 13.234375 120.832031 12.640625 C 120.925781 12.542969 121.007812 12.425781 121.074219 12.316406 L 121.480469 13.109375 Z M 121.472656 13.109375 " fill-opacity="1" fill-rule="nonzero"/><path fill="#ffffff" d="M 122.128906 14.554688 L 122.128906 13.742188 L 122.210938 13.714844 C 122.355469 13.632812 122.585938 13.5 122.585938 13.066406 L 122.585938 3.59375 C 122.585938 3.269531 122.230469 3.21875 121.964844 3.21875 L 121.820312 3.21875 L 121.820312 2.488281 L 123.183594 2.488281 C 124.367188 2.488281 124.433594 3.167969 124.441406 4.109375 C 124.441406 4.855469 124.449219 7.09375 124.449219 7.09375 C 124.988281 6.460938 125.570312 6.214844 126.34375 6.214844 C 128.128906 6.214844 129.167969 7.445312 129.167969 8.957031 L 129.167969 13.058594 C 129.167969 13.449219 129.296875 13.574219 129.621094 13.738281 L 129.621094 14.546875 L 126.894531 14.546875 L 126.894531 13.738281 C 127.207031 13.625 127.382812 13.398438 127.382812 13.058594 L 127.382812 9.007812 C 127.382812 8.101562 126.832031 7.371094 126.054688 7.304688 C 125.246094 7.304688 124.648438 7.777344 124.355469 8.507812 L 124.355469 13.058594 C 124.355469 13.351562 124.464844 13.515625 124.691406 13.640625 C 124.746094 13.671875 124.824219 13.707031 124.882812 13.738281 L 124.882812 14.546875 L 122.128906 14.546875 Z M 122.128906 14.554688 " fill-opacity="1" fill-rule="nonzero"/><path fill="#ffffff" d="M 46.816406 25.109375 C 47.074219 25.109375 47.289062 25.058594 47.464844 24.953125 C 47.640625 24.851562 47.78125 24.710938 47.890625 24.542969 C 48.003906 24.371094 48.078125 24.179688 48.121094 23.960938 C 48.164062 23.738281 48.1875 23.515625 48.1875 23.289062 L 48.1875 20.4375 L 49.269531 20.4375 L 49.269531 23.289062 C 49.269531 23.671875 49.226562 24.03125 49.128906 24.363281 C 49.042969 24.703125 48.894531 24.996094 48.695312 25.25 C 48.496094 25.5 48.246094 25.699219 47.9375 25.84375 C 47.625 25.992188 47.257812 26.066406 46.824219 26.066406 C 46.390625 26.066406 46 25.984375 45.6875 25.832031 C 45.378906 25.675781 45.121094 25.46875 44.929688 25.21875 C 44.738281 24.96875 44.597656 24.667969 44.507812 24.335938 C 44.421875 23.996094 44.378906 23.648438 44.378906 23.289062 L 44.378906 20.4375 L 45.46875 20.4375 L 45.46875 23.289062 C 45.46875 23.523438 45.488281 23.753906 45.535156 23.972656 C 45.578125 24.195312 45.652344 24.386719 45.761719 24.554688 C 45.871094 24.726562 46.011719 24.859375 46.183594 24.960938 C 46.351562 25.0625 46.566406 25.117188 46.824219 25.117188 Z M 46.816406 25.109375 " fill-opacity="1" fill-rule="nonzero"/><path fill="#ffffff" d="M 52.527344 22.441406 L 52.527344 26.027344 L 51.4375 26.027344 L 51.4375 20.4375 L 52.277344 20.4375 L 55.195312 24.105469 L 55.195312 20.445312 L 56.285156 20.445312 L 56.285156 26.027344 L 55.402344 26.027344 Z M 52.527344 22.441406 " fill-opacity="1" fill-rule="nonzero"/><path fill="#ffffff" d="M 58.53125 20.4375 L 59.625 20.4375 L 59.625 26.027344 L 58.53125 26.027344 Z M 58.53125 20.4375 " fill-opacity="1" fill-rule="nonzero"/><path fill="#ffffff" d="M 62.445312 20.429688 L 63.957031 24.660156 L 65.453125 20.429688 L 66.59375 20.429688 L 64.414062 26.023438 L 63.5 26.023438 L 61.304688 20.429688 Z M 62.445312 20.429688 " fill-opacity="1" fill-rule="nonzero"/><path fill="#ffffff" d="M 72.160156 25.070312 L 72.160156 26.023438 L 68.273438 26.023438 L 68.273438 20.429688 L 72.09375 20.429688 L 72.09375 21.382812 L 69.367188 21.382812 L 69.367188 22.730469 L 71.722656 22.730469 L 71.722656 23.613281 L 69.367188 23.613281 L 69.367188 25.070312 L 72.167969 25.070312 Z M 72.160156 25.070312 " fill-opacity="1" fill-rule="nonzero"/><path fill="#ffffff" d="M 74.089844 26.027344 L 74.089844 20.4375 L 76.566406 20.4375 C 76.824219 20.4375 77.058594 20.492188 77.28125 20.601562 C 77.5 20.710938 77.683594 20.851562 77.839844 21.027344 C 77.996094 21.203125 78.121094 21.402344 78.207031 21.625 C 78.296875 21.84375 78.339844 22.074219 78.339844 22.292969 C 78.339844 22.65625 78.253906 22.988281 78.070312 23.28125 C 77.882812 23.578125 77.640625 23.789062 77.332031 23.921875 L 78.605469 26.027344 L 77.382812 26.027344 L 76.242188 24.152344 L 75.171875 24.152344 L 75.171875 26.027344 L 74.082031 26.027344 Z M 75.179688 23.199219 L 76.542969 23.199219 C 76.644531 23.199219 76.734375 23.179688 76.824219 23.128906 C 76.910156 23.082031 76.984375 23.015625 77.042969 22.9375 C 77.109375 22.855469 77.15625 22.757812 77.191406 22.648438 C 77.230469 22.539062 77.25 22.421875 77.25 22.296875 C 77.25 22.167969 77.230469 22.042969 77.183594 21.933594 C 77.140625 21.824219 77.089844 21.726562 77.015625 21.648438 C 76.941406 21.566406 76.859375 21.5 76.773438 21.457031 C 76.683594 21.410156 76.585938 21.390625 76.492188 21.390625 L 75.171875 21.390625 L 75.171875 23.199219 Z M 75.179688 23.199219 " fill-opacity="1" fill-rule="nonzero"/><path fill="#ffffff" d="M 83.742188 21.898438 C 83.707031 21.859375 83.640625 21.808594 83.542969 21.75 C 83.449219 21.691406 83.332031 21.625 83.191406 21.566406 C 83.050781 21.507812 82.902344 21.457031 82.742188 21.410156 C 82.578125 21.367188 82.410156 21.34375 82.246094 21.34375 C 81.945312 21.34375 81.722656 21.402344 81.578125 21.507812 C 81.429688 21.617188 81.355469 21.773438 81.355469 21.972656 C 81.355469 22.089844 81.386719 22.183594 81.4375 22.257812 C 81.496094 22.332031 81.570312 22.398438 81.679688 22.457031 C 81.789062 22.515625 81.914062 22.566406 82.078125 22.613281 C 82.238281 22.65625 82.421875 22.707031 82.628906 22.757812 C 82.902344 22.832031 83.152344 22.914062 83.375 22.996094 C 83.59375 23.074219 83.785156 23.1875 83.941406 23.3125 C 84.097656 23.4375 84.214844 23.589844 84.304688 23.761719 C 84.382812 23.9375 84.429688 24.152344 84.429688 24.410156 C 84.429688 24.710938 84.371094 24.960938 84.257812 25.175781 C 84.148438 25.386719 83.992188 25.558594 83.800781 25.691406 C 83.609375 25.824219 83.390625 25.917969 83.136719 25.976562 C 82.886719 26.035156 82.628906 26.066406 82.359375 26.066406 C 81.9375 26.066406 81.523438 26 81.113281 25.875 C 80.699219 25.75 80.332031 25.574219 80.007812 25.335938 L 80.484375 24.402344 C 80.53125 24.445312 80.617188 24.511719 80.742188 24.585938 C 80.867188 24.660156 81.015625 24.738281 81.179688 24.8125 C 81.347656 24.886719 81.53125 24.953125 81.738281 25.003906 C 81.945312 25.058594 82.152344 25.085938 82.371094 25.085938 C 82.96875 25.085938 83.269531 24.894531 83.269531 24.511719 C 83.269531 24.394531 83.234375 24.289062 83.167969 24.203125 C 83.101562 24.113281 83.007812 24.046875 82.875 23.980469 C 82.742188 23.914062 82.59375 23.863281 82.417969 23.8125 C 82.238281 23.761719 82.039062 23.703125 81.820312 23.636719 C 81.554688 23.5625 81.320312 23.480469 81.121094 23.390625 C 80.921875 23.304688 80.757812 23.199219 80.625 23.082031 C 80.492188 22.964844 80.398438 22.824219 80.332031 22.671875 C 80.265625 22.515625 80.234375 22.332031 80.234375 22.117188 C 80.234375 21.839844 80.285156 21.582031 80.390625 21.359375 C 80.492188 21.136719 80.640625 20.953125 80.824219 20.808594 C 81.007812 20.660156 81.230469 20.550781 81.472656 20.476562 C 81.722656 20.402344 81.980469 20.359375 82.269531 20.359375 C 82.667969 20.359375 83.027344 20.417969 83.359375 20.542969 C 83.691406 20.667969 83.980469 20.816406 84.230469 20.976562 L 83.75 21.859375 Z M 83.742188 21.898438 " fill-opacity="1" fill-rule="nonzero"/><path fill="#ffffff" d="M 86.320312 20.4375 L 87.414062 20.4375 L 87.414062 26.027344 L 86.320312 26.027344 Z M 86.320312 20.4375 " fill-opacity="1" fill-rule="nonzero"/><path fill="#ffffff" d="M 93.839844 21.390625 L 92.046875 21.390625 L 92.046875 26.027344 L 90.972656 26.027344 L 90.972656 21.390625 L 89.179688 21.390625 L 89.179688 20.4375 L 93.839844 20.4375 Z M 93.839844 21.390625 " fill-opacity="1" fill-rule="nonzero"/><path fill="#ffffff" d="M 96.242188 20.429688 L 97.617188 23.128906 L 99.019531 20.429688 L 100.191406 20.429688 L 98.15625 24.070312 L 98.15625 26.023438 L 97.082031 26.023438 L 97.082031 24.054688 L 95.054688 20.429688 Z M 96.242188 20.429688 " fill-opacity="1" fill-rule="nonzero"/><path fill="#ffffff" d="M 44.371094 28.96875 L 45.460938 28.96875 L 45.460938 34.558594 L 44.371094 34.558594 Z M 44.371094 28.96875 " fill-opacity="1" fill-rule="nonzero"/><path fill="#ffffff" d="M 48.335938 28.96875 L 49.710938 31.664062 L 51.113281 28.96875 L 52.285156 28.96875 L 50.25 32.605469 L 50.25 34.558594 L 49.167969 34.558594 L 49.167969 32.589844 L 47.140625 28.96875 Z M 48.335938 28.96875 " fill-opacity="1" fill-rule="nonzero"/><path fill="#ffffff" d="M 56.351562 33.636719 C 56.609375 33.636719 56.824219 33.585938 57 33.484375 C 57.175781 33.378906 57.316406 33.238281 57.429688 33.070312 C 57.539062 32.902344 57.613281 32.710938 57.65625 32.488281 C 57.699219 32.269531 57.722656 32.046875 57.722656 31.816406 L 57.722656 28.96875 L 58.804688 28.96875 L 58.804688 31.816406 C 58.804688 32.203125 58.761719 32.5625 58.664062 32.894531 C 58.578125 33.234375 58.429688 33.527344 58.230469 33.777344 C 58.03125 34.027344 57.78125 34.226562 57.472656 34.375 C 57.164062 34.519531 56.792969 34.59375 56.359375 34.59375 C 55.925781 34.59375 55.535156 34.515625 55.21875 34.359375 C 54.90625 34.203125 54.648438 34 54.457031 33.746094 C 54.265625 33.492188 54.125 33.195312 54.039062 32.863281 C 53.949219 32.53125 53.90625 32.179688 53.90625 31.816406 L 53.90625 28.96875 L 54.996094 28.96875 L 54.996094 31.816406 C 54.996094 32.054688 55.019531 32.28125 55.0625 32.503906 C 55.105469 32.722656 55.179688 32.914062 55.289062 33.085938 C 55.402344 33.253906 55.542969 33.386719 55.710938 33.492188 C 55.878906 33.59375 56.09375 33.644531 56.351562 33.644531 Z M 56.351562 33.636719 " fill-opacity="1" fill-rule="nonzero"/><path fill="#ffffff" d="M 62.0625 30.980469 L 62.0625 34.566406 L 60.972656 34.566406 L 60.972656 28.976562 L 61.8125 28.976562 L 64.730469 32.644531 L 64.730469 28.984375 L 65.820312 28.984375 L 65.820312 34.566406 L 64.9375 34.566406 Z M 62.0625 30.980469 " fill-opacity="1" fill-rule="nonzero"/><path fill="#ffffff" d="M 68.070312 28.96875 L 69.160156 28.96875 L 69.160156 34.558594 L 68.070312 34.558594 Z M 68.070312 28.96875 " fill-opacity="1" fill-rule="nonzero"/><path fill="#ffffff" d="M 71.980469 28.96875 L 73.492188 33.195312 L 74.988281 28.96875 L 76.128906 28.96875 L 73.949219 34.558594 L 73.035156 34.558594 L 70.839844 28.96875 Z M 71.980469 28.96875 " fill-opacity="1" fill-rule="nonzero"/><path fill="#ffffff" d="M 81.695312 33.609375 L 81.695312 34.558594 L 77.8125 34.558594 L 77.8125 28.96875 L 81.628906 28.96875 L 81.628906 29.917969 L 78.902344 29.917969 L 78.902344 31.265625 L 81.257812 31.265625 L 81.257812 32.148438 L 78.902344 32.148438 L 78.902344 33.609375 L 81.703125 33.609375 Z M 81.695312 33.609375 " fill-opacity="1" fill-rule="nonzero"/><path fill="#ffffff" d="M 86.84375 30.433594 C 86.84375 30.433594 86.742188 30.34375 86.644531 30.285156 C 86.550781 30.21875 86.433594 30.160156 86.292969 30.101562 C 86.152344 30.042969 86.003906 29.992188 85.84375 29.949219 C 85.679688 29.902344 85.511719 29.882812 85.347656 29.882812 C 85.046875 29.882812 84.824219 29.941406 84.679688 30.042969 C 84.53125 30.152344 84.457031 30.308594 84.457031 30.507812 C 84.457031 30.625 84.488281 30.722656 84.539062 30.792969 C 84.597656 30.867188 84.671875 30.933594 84.78125 30.992188 C 84.886719 31.050781 85.019531 31.105469 85.179688 31.148438 C 85.34375 31.191406 85.527344 31.242188 85.734375 31.296875 C 86.003906 31.367188 86.253906 31.449219 86.476562 31.53125 C 86.699219 31.613281 86.890625 31.722656 87.042969 31.847656 C 87.199219 31.972656 87.316406 32.128906 87.40625 32.296875 C 87.492188 32.464844 87.53125 32.6875 87.53125 32.945312 C 87.53125 33.246094 87.472656 33.496094 87.359375 33.710938 C 87.25 33.925781 87.097656 34.09375 86.902344 34.226562 C 86.710938 34.359375 86.492188 34.457031 86.242188 34.515625 C 85.992188 34.574219 85.734375 34.601562 85.460938 34.601562 C 85.039062 34.601562 84.628906 34.535156 84.214844 34.410156 C 83.800781 34.285156 83.433594 34.109375 83.109375 33.875 L 83.589844 32.9375 C 83.632812 32.980469 83.722656 33.046875 83.847656 33.121094 C 83.972656 33.195312 84.117188 33.277344 84.28125 33.351562 C 84.449219 33.425781 84.632812 33.492188 84.839844 33.542969 C 85.046875 33.59375 85.253906 33.621094 85.476562 33.621094 C 86.070312 33.621094 86.375 33.429688 86.375 33.046875 C 86.375 32.929688 86.335938 32.828125 86.269531 32.738281 C 86.203125 32.65625 86.109375 32.585938 85.976562 32.519531 C 85.84375 32.453125 85.695312 32.398438 85.519531 32.347656 C 85.34375 32.296875 85.144531 32.238281 84.921875 32.171875 C 84.65625 32.097656 84.421875 32.015625 84.222656 31.929688 C 84.023438 31.839844 83.859375 31.738281 83.726562 31.621094 C 83.59375 31.5 83.5 31.363281 83.433594 31.207031 C 83.367188 31.050781 83.335938 30.867188 83.335938 30.65625 C 83.335938 30.375 83.390625 30.117188 83.492188 29.894531 C 83.59375 29.675781 83.742188 29.492188 83.925781 29.34375 C 84.113281 29.195312 84.332031 29.085938 84.574219 29.011719 C 84.824219 28.9375 85.089844 28.894531 85.371094 28.894531 C 85.761719 28.894531 86.128906 28.953125 86.460938 29.078125 C 86.792969 29.203125 87.082031 29.351562 87.332031 29.511719 L 86.851562 30.398438 Z M 86.84375 30.433594 " fill-opacity="1" fill-rule="nonzero"/><path fill="#ffffff" d="M 89.417969 28.96875 L 90.507812 28.96875 L 90.507812 34.558594 L 89.417969 34.558594 Z M 89.417969 28.96875 " fill-opacity="1" fill-rule="nonzero"/><path fill="#ffffff" d="M 96.941406 29.917969 L 95.148438 29.917969 L 95.148438 34.558594 L 94.074219 34.558594 L 94.074219 29.917969 L 92.285156 29.917969 L 92.285156 28.96875 L 96.941406 28.96875 Z M 96.941406 29.917969 " fill-opacity="1" fill-rule="nonzero"/><path fill="#ffffff" d="M 103.417969 28.96875 L 103.417969 34.558594 L 102.34375 34.558594 L 102.34375 32.171875 L 99.808594 32.171875 L 99.808594 34.558594 L 98.71875 34.558594 L 98.71875 28.96875 L 99.808594 28.96875 L 99.808594 31.230469 L 102.34375 31.230469 L 102.34375 28.96875 Z M 103.417969 28.96875 " fill-opacity="1" fill-rule="nonzero"/><path fill="#ffffff" d="M 105.660156 28.96875 L 106.75 28.96875 L 106.75 34.558594 L 105.660156 34.558594 Z M 105.660156 28.96875 " fill-opacity="1" fill-rule="nonzero"/><path fill="#ffffff" d="M 46.816406 42.167969 C 47.074219 42.167969 47.289062 42.113281 47.464844 42.011719 C 47.640625 41.910156 47.78125 41.769531 47.890625 41.597656 C 48.003906 41.429688 48.078125 41.238281 48.121094 41.019531 C 48.164062 40.796875 48.1875 40.574219 48.1875 40.347656 L 48.1875 37.496094 L 49.261719 37.496094 L 49.261719 40.347656 C 49.261719 40.730469 49.21875 41.089844 49.121094 41.421875 C 49.035156 41.761719 48.886719 42.054688 48.6875 42.304688 C 48.488281 42.558594 48.238281 42.757812 47.929688 42.902344 C 47.621094 43.050781 47.25 43.125 46.816406 43.125 C 46.382812 43.125 45.992188 43.042969 45.675781 42.886719 C 45.363281 42.734375 45.105469 42.527344 44.914062 42.277344 C 44.722656 42.019531 44.582031 41.726562 44.496094 41.394531 C 44.40625 41.054688 44.363281 40.707031 44.363281 40.347656 L 44.363281 37.496094 L 45.453125 37.496094 L 45.453125 40.347656 C 45.453125 40.582031 45.476562 40.8125 45.519531 41.03125 C 45.5625 41.253906 45.636719 41.445312 45.746094 41.613281 C 45.859375 41.785156 46 41.917969 46.167969 42.019531 C 46.335938 42.121094 46.550781 42.175781 46.808594 42.175781 Z M 46.816406 42.167969 " fill-opacity="1" fill-rule="nonzero"/><path fill="#ffffff" d="M 52.527344 39.507812 L 52.527344 43.09375 L 51.4375 43.09375 L 51.4375 37.503906 L 52.277344 37.503906 L 55.195312 41.171875 L 55.195312 37.511719 L 56.285156 37.511719 L 56.285156 43.09375 L 55.402344 43.09375 Z M 52.527344 39.507812 " fill-opacity="1" fill-rule="nonzero"/><path fill="#ffffff" d="M 58.53125 37.503906 L 59.625 37.503906 L 59.625 43.09375 L 58.53125 43.09375 Z M 58.53125 37.503906 " fill-opacity="1" fill-rule="nonzero"/><path fill="#ffffff" d="M 62.445312 37.496094 L 63.957031 41.726562 L 65.453125 37.496094 L 66.59375 37.496094 L 64.414062 43.085938 L 63.5 43.085938 L 61.304688 37.496094 Z M 62.445312 37.496094 " fill-opacity="1" fill-rule="nonzero"/><path fill="#ffffff" d="M 72.160156 42.136719 L 72.160156 43.085938 L 68.273438 43.085938 L 68.273438 37.496094 L 72.09375 37.496094 L 72.09375 38.445312 L 69.367188 38.445312 L 69.367188 39.796875 L 71.722656 39.796875 L 71.722656 40.679688 L 69.367188 40.679688 L 69.367188 42.136719 L 72.167969 42.136719 Z M 72.160156 42.136719 " fill-opacity="1" fill-rule="nonzero"/><path fill="#ffffff" d="M 74.089844 43.09375 L 74.089844 37.503906 L 76.566406 37.503906 C 76.824219 37.503906 77.058594 37.554688 77.28125 37.667969 C 77.5 37.777344 77.683594 37.917969 77.839844 38.09375 C 77.996094 38.269531 78.121094 38.46875 78.207031 38.691406 C 78.296875 38.910156 78.339844 39.140625 78.339844 39.359375 C 78.339844 39.722656 78.253906 40.054688 78.070312 40.347656 C 77.882812 40.640625 77.640625 40.855469 77.332031 40.988281 L 78.605469 43.09375 L 77.382812 43.09375 L 76.242188 41.214844 L 75.171875 41.214844 L 75.171875 43.09375 L 74.082031 43.09375 Z M 75.179688 40.265625 L 76.542969 40.265625 C 76.644531 40.265625 76.734375 40.246094 76.824219 40.191406 C 76.910156 40.148438 76.984375 40.082031 77.042969 40 C 77.101562 39.921875 77.15625 39.824219 77.191406 39.714844 C 77.230469 39.601562 77.25 39.484375 77.25 39.359375 C 77.25 39.234375 77.230469 39.109375 77.183594 39 C 77.140625 38.890625 77.089844 38.792969 77.015625 38.710938 C 76.941406 38.632812 76.859375 38.566406 76.773438 38.519531 C 76.683594 38.476562 76.585938 38.453125 76.492188 38.453125 L 75.171875 38.453125 L 75.171875 40.265625 Z M 75.179688 40.265625 " fill-opacity="1" fill-rule="nonzero"/><path fill="#ffffff" d="M 83.742188 38.960938 C 83.707031 38.925781 83.640625 38.875 83.542969 38.816406 C 83.449219 38.75 83.332031 38.691406 83.191406 38.632812 C 83.050781 38.574219 82.902344 38.519531 82.742188 38.476562 C 82.578125 38.433594 82.410156 38.410156 82.246094 38.410156 C 81.945312 38.410156 81.722656 38.46875 81.578125 38.574219 C 81.429688 38.683594 81.355469 38.835938 81.355469 39.035156 C 81.355469 39.152344 81.386719 39.25 81.4375 39.324219 C 81.488281 39.398438 81.570312 39.464844 81.679688 39.523438 C 81.78125 39.582031 81.914062 39.632812 82.078125 39.675781 C 82.238281 39.722656 82.421875 39.773438 82.628906 39.824219 C 82.902344 39.898438 83.152344 39.980469 83.375 40.058594 C 83.59375 40.140625 83.785156 40.25 83.941406 40.375 C 84.097656 40.503906 84.214844 40.65625 84.304688 40.824219 C 84.382812 41.003906 84.429688 41.214844 84.429688 41.472656 C 84.429688 41.777344 84.371094 42.027344 84.257812 42.242188 C 84.148438 42.453125 83.992188 42.625 83.800781 42.757812 C 83.609375 42.886719 83.390625 42.984375 83.136719 43.042969 C 82.886719 43.101562 82.628906 43.132812 82.359375 43.132812 C 81.9375 43.132812 81.523438 43.066406 81.113281 42.941406 C 80.699219 42.816406 80.339844 42.636719 80.007812 42.402344 L 80.484375 41.46875 C 80.53125 41.511719 80.617188 41.578125 80.742188 41.652344 C 80.867188 41.726562 81.015625 41.804688 81.179688 41.878906 C 81.347656 41.953125 81.53125 42.019531 81.738281 42.070312 C 81.945312 42.121094 82.152344 42.152344 82.371094 42.152344 C 82.96875 42.152344 83.269531 41.960938 83.269531 41.578125 C 83.269531 41.460938 83.234375 41.355469 83.167969 41.269531 C 83.101562 41.1875 83.007812 41.113281 82.875 41.046875 C 82.742188 40.980469 82.59375 40.929688 82.417969 40.878906 C 82.238281 40.824219 82.039062 40.765625 81.820312 40.699219 C 81.554688 40.628906 81.320312 40.546875 81.121094 40.457031 C 80.921875 40.371094 80.757812 40.265625 80.625 40.148438 C 80.492188 40.03125 80.398438 39.890625 80.332031 39.734375 C 80.265625 39.582031 80.234375 39.398438 80.234375 39.183594 C 80.234375 38.902344 80.285156 38.644531 80.390625 38.425781 C 80.492188 38.203125 80.640625 38.019531 80.824219 37.871094 C 81.007812 37.726562 81.230469 37.613281 81.472656 37.542969 C 81.714844 37.46875 81.980469 37.421875 82.269531 37.421875 C 82.660156 37.421875 83.027344 37.480469 83.359375 37.609375 C 83.691406 37.734375 83.980469 37.878906 84.230469 38.042969 L 83.75 38.925781 Z M 83.742188 38.960938 " fill-opacity="1" fill-rule="nonzero"/><path fill="#ffffff" d="M 86.320312 37.503906 L 87.414062 37.503906 L 87.414062 43.09375 L 86.320312 43.09375 Z M 86.320312 37.503906 " fill-opacity="1" fill-rule="nonzero"/><path fill="#ffffff" d="M 93.839844 38.453125 L 92.046875 38.453125 L 92.046875 43.09375 L 90.964844 43.09375 L 90.964844 38.453125 L 89.175781 38.453125 L 89.175781 37.503906 L 93.832031 37.503906 L 93.832031 38.453125 Z M 93.839844 38.453125 " fill-opacity="1" fill-rule="nonzero"/><path fill="#ffffff" d="M 99.5 42.136719 L 99.5 43.085938 L 95.613281 43.085938 L 95.613281 37.496094 L 99.433594 37.496094 L 99.433594 38.445312 L 96.707031 38.445312 L 96.707031 39.796875 L 99.0625 39.796875 L 99.0625 40.679688 L 96.707031 40.679688 L 96.707031 42.136719 L 99.503906 42.136719 Z M 99.5 42.136719 " fill-opacity="1" fill-rule="nonzero"/><path fill="#ffffff" d="M 101.429688 37.503906 L 102.519531 37.503906 L 102.519531 43.09375 L 101.429688 43.09375 Z M 101.429688 37.503906 " fill-opacity="1" fill-rule="nonzero"/><path fill="#ffffff" d="M 108.945312 38.453125 L 107.15625 38.453125 L 107.15625 43.09375 L 106.070312 43.09375 L 106.070312 38.453125 L 104.28125 38.453125 L 104.28125 37.503906 L 108.9375 37.503906 L 108.9375 38.453125 Z M 108.945312 38.453125 " fill-opacity="1" fill-rule="nonzero"/><g fill="#b79962" fill-opacity="1"><g transform="translate(151.648956, 15.232674)"><g><path d="M 0.515625 -5.984375 C 0.515625 -6.710938 0.644531 -7.425781 0.90625 -8.125 C 1.164062 -8.832031 1.546875 -9.460938 2.046875 -10.015625 C 2.546875 -10.566406 3.15625 -11.015625 3.875 -11.359375 C 4.59375 -11.703125 5.414062 -11.875 6.34375 -11.875 C 7.425781 -11.875 8.363281 -11.632812 9.15625 -11.15625 C 9.945312 -10.6875 10.539062 -10.066406 10.9375 -9.296875 L 9.171875 -8.09375 C 9.015625 -8.425781 8.820312 -8.703125 8.59375 -8.921875 C 8.375 -9.148438 8.132812 -9.332031 7.875 -9.46875 C 7.625 -9.601562 7.359375 -9.695312 7.078125 -9.75 C 6.804688 -9.8125 6.539062 -9.84375 6.28125 -9.84375 C 5.695312 -9.84375 5.191406 -9.726562 4.765625 -9.5 C 4.335938 -9.269531 3.984375 -8.96875 3.703125 -8.59375 C 3.421875 -8.21875 3.207031 -7.796875 3.0625 -7.328125 C 2.914062 -6.859375 2.84375 -6.390625 2.84375 -5.921875 C 2.84375 -5.398438 2.925781 -4.894531 3.09375 -4.40625 C 3.257812 -3.925781 3.492188 -3.503906 3.796875 -3.140625 C 4.109375 -2.773438 4.476562 -2.484375 4.90625 -2.265625 C 5.332031 -2.046875 5.800781 -1.9375 6.3125 -1.9375 C 6.570312 -1.9375 6.847656 -1.96875 7.140625 -2.03125 C 7.429688 -2.09375 7.707031 -2.195312 7.96875 -2.34375 C 8.226562 -2.488281 8.46875 -2.675781 8.6875 -2.90625 C 8.90625 -3.132812 9.082031 -3.410156 9.21875 -3.734375 L 11.09375 -2.640625 C 10.90625 -2.203125 10.632812 -1.8125 10.28125 -1.46875 C 9.9375 -1.132812 9.546875 -0.847656 9.109375 -0.609375 C 8.671875 -0.378906 8.203125 -0.203125 7.703125 -0.078125 C 7.203125 0.0351562 6.710938 0.09375 6.234375 0.09375 C 5.390625 0.09375 4.617188 -0.0820312 3.921875 -0.4375 C 3.222656 -0.789062 2.617188 -1.25 2.109375 -1.8125 C 1.609375 -2.382812 1.21875 -3.035156 0.9375 -3.765625 C 0.65625 -4.492188 0.515625 -5.234375 0.515625 -5.984375 Z M 0.515625 -5.984375 "/></g></g></g><g fill="#b79962" fill-opacity="1"><g transform="translate(163.067686, 15.232674)"><g><path d="M 11.171875 -11.8125 L 11.171875 0 L 8.890625 0 L 8.890625 -5.046875 L 3.53125 -5.046875 L 3.53125 0 L 1.234375 0 L 1.234375 -11.8125 L 3.53125 -11.8125 L 3.53125 -7.03125 L 8.890625 -7.03125 L 8.890625 -11.8125 Z M 11.171875 -11.8125 "/></g></g></g><g fill="#b79962" fill-opacity="1"><g transform="translate(175.468492, 15.232674)"><g><path d="M 1.234375 0 L 1.234375 -11.8125 L 9.171875 -11.8125 L 9.171875 -9.796875 L 3.53125 -9.796875 L 3.53125 -6.75 L 8.21875 -6.75 L 8.21875 -4.890625 L 3.53125 -4.890625 L 3.53125 0 Z M 1.234375 0 "/></g></g></g><g fill="#ffffff" fill-opacity="1"><g transform="translate(152.966927, 27.673525)"><g><path d="M 0.375 -3.171875 C 0.375 -3.546875 0.4375 -3.921875 0.5625 -4.296875 C 0.695312 -4.671875 0.890625 -5.003906 1.140625 -5.296875 C 1.398438 -5.585938 1.710938 -5.828125 2.078125 -6.015625 C 2.453125 -6.203125 2.875 -6.296875 3.34375 -6.296875 C 3.894531 -6.296875 4.367188 -6.164062 4.765625 -5.90625 C 5.160156 -5.65625 5.457031 -5.328125 5.65625 -4.921875 L 5.171875 -4.625 C 5.066406 -4.832031 4.941406 -5.003906 4.796875 -5.140625 C 4.648438 -5.285156 4.492188 -5.398438 4.328125 -5.484375 C 4.171875 -5.578125 4.003906 -5.640625 3.828125 -5.671875 C 3.648438 -5.710938 3.472656 -5.734375 3.296875 -5.734375 C 2.921875 -5.734375 2.585938 -5.65625 2.296875 -5.5 C 2.015625 -5.351562 1.773438 -5.15625 1.578125 -4.90625 C 1.378906 -4.65625 1.226562 -4.375 1.125 -4.0625 C 1.03125 -3.757812 0.984375 -3.453125 0.984375 -3.140625 C 0.984375 -2.796875 1.039062 -2.460938 1.15625 -2.140625 C 1.28125 -1.828125 1.445312 -1.546875 1.65625 -1.296875 C 1.863281 -1.054688 2.109375 -0.863281 2.390625 -0.71875 C 2.679688 -0.570312 2.992188 -0.5 3.328125 -0.5 C 3.503906 -0.5 3.6875 -0.519531 3.875 -0.5625 C 4.0625 -0.613281 4.238281 -0.6875 4.40625 -0.78125 C 4.582031 -0.875 4.742188 -0.992188 4.890625 -1.140625 C 5.035156 -1.285156 5.160156 -1.460938 5.265625 -1.671875 L 5.765625 -1.40625 C 5.671875 -1.164062 5.53125 -0.957031 5.34375 -0.78125 C 5.164062 -0.601562 4.960938 -0.453125 4.734375 -0.328125 C 4.515625 -0.203125 4.28125 -0.109375 4.03125 -0.046875 C 3.78125 0.015625 3.535156 0.046875 3.296875 0.046875 C 2.867188 0.046875 2.472656 -0.046875 2.109375 -0.234375 C 1.753906 -0.421875 1.445312 -0.664062 1.1875 -0.96875 C 0.925781 -1.269531 0.722656 -1.613281 0.578125 -2 C 0.441406 -2.382812 0.375 -2.773438 0.375 -3.171875 Z M 0.375 -3.171875 "/></g></g></g><g fill="#ffffff" fill-opacity="1"><g transform="translate(159.014968, 27.673525)"><g><path d="M 2.640625 0.09375 C 2.304688 0.09375 2 0.03125 1.71875 -0.09375 C 1.4375 -0.226562 1.191406 -0.40625 0.984375 -0.625 C 0.785156 -0.84375 0.628906 -1.09375 0.515625 -1.375 C 0.398438 -1.664062 0.34375 -1.976562 0.34375 -2.3125 C 0.34375 -2.632812 0.398438 -2.9375 0.515625 -3.21875 C 0.628906 -3.5 0.785156 -3.75 0.984375 -3.96875 C 1.191406 -4.1875 1.4375 -4.359375 1.71875 -4.484375 C 2 -4.609375 2.304688 -4.671875 2.640625 -4.671875 C 2.972656 -4.671875 3.273438 -4.609375 3.546875 -4.484375 C 3.828125 -4.359375 4.066406 -4.1875 4.265625 -3.96875 C 4.472656 -3.75 4.628906 -3.5 4.734375 -3.21875 C 4.847656 -2.9375 4.90625 -2.632812 4.90625 -2.3125 C 4.90625 -2.269531 4.90625 -2.222656 4.90625 -2.171875 C 4.90625 -2.128906 4.90625 -2.097656 4.90625 -2.078125 L 0.96875 -2.078125 C 0.988281 -1.828125 1.046875 -1.597656 1.140625 -1.390625 C 1.234375 -1.179688 1.359375 -1 1.515625 -0.84375 C 1.671875 -0.695312 1.84375 -0.582031 2.03125 -0.5 C 2.226562 -0.414062 2.441406 -0.375 2.671875 -0.375 C 2.816406 -0.375 2.960938 -0.394531 3.109375 -0.4375 C 3.253906 -0.476562 3.390625 -0.53125 3.515625 -0.59375 C 3.640625 -0.664062 3.75 -0.753906 3.84375 -0.859375 C 3.945312 -0.960938 4.023438 -1.078125 4.078125 -1.203125 L 4.59375 -1.0625 C 4.53125 -0.882812 4.429688 -0.726562 4.296875 -0.59375 C 4.171875 -0.457031 4.019531 -0.335938 3.84375 -0.234375 C 3.675781 -0.128906 3.488281 -0.0507812 3.28125 0 C 3.082031 0.0625 2.867188 0.09375 2.640625 0.09375 Z M 4.328125 -2.53125 C 4.316406 -2.78125 4.257812 -3.003906 4.15625 -3.203125 C 4.0625 -3.410156 3.9375 -3.585938 3.78125 -3.734375 C 3.632812 -3.878906 3.460938 -3.992188 3.265625 -4.078125 C 3.078125 -4.160156 2.867188 -4.203125 2.640625 -4.203125 C 2.421875 -4.203125 2.207031 -4.160156 2 -4.078125 C 1.800781 -3.992188 1.628906 -3.878906 1.484375 -3.734375 C 1.335938 -3.585938 1.21875 -3.410156 1.125 -3.203125 C 1.03125 -3.003906 0.972656 -2.78125 0.953125 -2.53125 Z M 4.328125 -2.53125 "/></g></g></g><g fill="#ffffff" fill-opacity="1"><g transform="translate(164.190189, 27.673525)"><g><path d="M 4.515625 0 L 3.921875 0 L 3.921875 -2.5625 C 3.921875 -3.113281 3.835938 -3.507812 3.671875 -3.75 C 3.515625 -4 3.269531 -4.125 2.9375 -4.125 C 2.757812 -4.125 2.582031 -4.09375 2.40625 -4.03125 C 2.226562 -3.96875 2.0625 -3.875 1.90625 -3.75 C 1.757812 -3.632812 1.628906 -3.492188 1.515625 -3.328125 C 1.398438 -3.171875 1.316406 -3 1.265625 -2.8125 L 1.265625 0 L 0.65625 0 L 0.65625 -4.59375 L 1.203125 -4.59375 L 1.203125 -3.546875 C 1.390625 -3.878906 1.65625 -4.148438 2 -4.359375 C 2.351562 -4.566406 2.738281 -4.671875 3.15625 -4.671875 C 3.40625 -4.671875 3.617188 -4.625 3.796875 -4.53125 C 3.972656 -4.4375 4.113281 -4.300781 4.21875 -4.125 C 4.320312 -3.957031 4.394531 -3.75 4.4375 -3.5 C 4.488281 -3.257812 4.515625 -2.988281 4.515625 -2.6875 Z M 4.515625 0 "/></g></g></g><g fill="#ffffff" fill-opacity="1"><g transform="translate(169.330143, 27.673525)"><g><path d="M 2.859375 -0.21875 C 2.828125 -0.195312 2.773438 -0.171875 2.703125 -0.140625 C 2.640625 -0.117188 2.5625 -0.09375 2.46875 -0.0625 C 2.382812 -0.03125 2.285156 -0.00390625 2.171875 0.015625 C 2.066406 0.0351562 1.953125 0.046875 1.828125 0.046875 C 1.691406 0.046875 1.566406 0.03125 1.453125 0 C 1.335938 -0.03125 1.234375 -0.0820312 1.140625 -0.15625 C 1.054688 -0.226562 0.988281 -0.320312 0.9375 -0.4375 C 0.882812 -0.550781 0.859375 -0.679688 0.859375 -0.828125 L 0.859375 -4.109375 L 0.21875 -4.109375 L 0.21875 -4.59375 L 0.859375 -4.59375 L 0.859375 -6.140625 L 1.453125 -6.140625 L 1.453125 -4.59375 L 2.515625 -4.59375 L 2.515625 -4.109375 L 1.453125 -4.109375 L 1.453125 -1 C 1.460938 -0.820312 1.519531 -0.691406 1.625 -0.609375 C 1.738281 -0.535156 1.867188 -0.5 2.015625 -0.5 C 2.179688 -0.5 2.328125 -0.523438 2.453125 -0.578125 C 2.585938 -0.640625 2.671875 -0.679688 2.703125 -0.703125 Z M 2.859375 -0.21875 "/></g></g></g><g fill="#ffffff" fill-opacity="1"><g transform="translate(172.283638, 27.673525)"><g><path d="M 2.953125 -4.0625 C 2.546875 -4.050781 2.191406 -3.9375 1.890625 -3.71875 C 1.585938 -3.507812 1.378906 -3.222656 1.265625 -2.859375 L 1.265625 0 L 0.65625 0 L 0.65625 -4.59375 L 1.21875 -4.59375 L 1.21875 -3.484375 C 1.394531 -3.835938 1.625 -4.113281 1.90625 -4.3125 C 2.195312 -4.519531 2.507812 -4.625 2.84375 -4.625 C 2.882812 -4.625 2.921875 -4.617188 2.953125 -4.609375 Z M 2.953125 -4.0625 "/></g></g></g><g fill="#ffffff" fill-opacity="1"><g transform="translate(175.378195, 27.673525)"><g><path d="M 2.640625 0.09375 C 2.304688 0.09375 2 0.03125 1.71875 -0.09375 C 1.4375 -0.226562 1.191406 -0.40625 0.984375 -0.625 C 0.785156 -0.84375 0.628906 -1.09375 0.515625 -1.375 C 0.398438 -1.664062 0.34375 -1.976562 0.34375 -2.3125 C 0.34375 -2.632812 0.398438 -2.9375 0.515625 -3.21875 C 0.628906 -3.5 0.785156 -3.75 0.984375 -3.96875 C 1.191406 -4.1875 1.4375 -4.359375 1.71875 -4.484375 C 2 -4.609375 2.304688 -4.671875 2.640625 -4.671875 C 2.972656 -4.671875 3.273438 -4.609375 3.546875 -4.484375 C 3.828125 -4.359375 4.066406 -4.1875 4.265625 -3.96875 C 4.472656 -3.75 4.628906 -3.5 4.734375 -3.21875 C 4.847656 -2.9375 4.90625 -2.632812 4.90625 -2.3125 C 4.90625 -2.269531 4.90625 -2.222656 4.90625 -2.171875 C 4.90625 -2.128906 4.90625 -2.097656 4.90625 -2.078125 L 0.96875 -2.078125 C 0.988281 -1.828125 1.046875 -1.597656 1.140625 -1.390625 C 1.234375 -1.179688 1.359375 -1 1.515625 -0.84375 C 1.671875 -0.695312 1.84375 -0.582031 2.03125 -0.5 C 2.226562 -0.414062 2.441406 -0.375 2.671875 -0.375 C 2.816406 -0.375 2.960938 -0.394531 3.109375 -0.4375 C 3.253906 -0.476562 3.390625 -0.53125 3.515625 -0.59375 C 3.640625 -0.664062 3.75 -0.753906 3.84375 -0.859375 C 3.945312 -0.960938 4.023438 -1.078125 4.078125 -1.203125 L 4.59375 -1.0625 C 4.53125 -0.882812 4.429688 -0.726562 4.296875 -0.59375 C 4.171875 -0.457031 4.019531 -0.335938 3.84375 -0.234375 C 3.675781 -0.128906 3.488281 -0.0507812 3.28125 0 C 3.082031 0.0625 2.867188 0.09375 2.640625 0.09375 Z M 4.328125 -2.53125 C 4.316406 -2.78125 4.257812 -3.003906 4.15625 -3.203125 C 4.0625 -3.410156 3.9375 -3.585938 3.78125 -3.734375 C 3.632812 -3.878906 3.460938 -3.992188 3.265625 -4.078125 C 3.078125 -4.160156 2.867188 -4.203125 2.640625 -4.203125 C 2.421875 -4.203125 2.207031 -4.160156 2 -4.078125 C 1.800781 -3.992188 1.628906 -3.878906 1.484375 -3.734375 C 1.335938 -3.585938 1.21875 -3.410156 1.125 -3.203125 C 1.03125 -3.003906 0.972656 -2.78125 0.953125 -2.53125 Z M 4.328125 -2.53125 "/></g></g></g><g fill="#ffffff" fill-opacity="1"><g transform="translate(180.553417, 27.673525)"><g/></g></g><g fill="#ffffff" fill-opacity="1"><g transform="translate(182.8016, 27.673525)"><g><path d="M 0.875 0 L 0.875 -4.109375 L 0.25 -4.109375 L 0.25 -4.59375 L 0.875 -4.59375 L 0.875 -4.71875 C 0.875 -5.28125 0.992188 -5.71875 1.234375 -6.03125 C 1.484375 -6.351562 1.816406 -6.515625 2.234375 -6.515625 C 2.410156 -6.515625 2.582031 -6.488281 2.75 -6.4375 C 2.925781 -6.382812 3.078125 -6.316406 3.203125 -6.234375 L 3.015625 -5.796875 C 2.929688 -5.859375 2.828125 -5.90625 2.703125 -5.9375 C 2.585938 -5.976562 2.46875 -6 2.34375 -6 C 2.0625 -6 1.847656 -5.890625 1.703125 -5.671875 C 1.554688 -5.453125 1.484375 -5.140625 1.484375 -4.734375 L 1.484375 -4.59375 L 2.75 -4.59375 L 2.75 -4.109375 L 1.484375 -4.109375 L 1.484375 0 Z M 0.875 0 "/></g></g></g><g fill="#ffffff" fill-opacity="1"><g transform="translate(185.711004, 27.673525)"><g><path d="M 2.625 0.09375 C 2.28125 0.09375 1.96875 0.03125 1.6875 -0.09375 C 1.414062 -0.226562 1.175781 -0.398438 0.96875 -0.609375 C 0.769531 -0.828125 0.613281 -1.082031 0.5 -1.375 C 0.394531 -1.664062 0.34375 -1.96875 0.34375 -2.28125 C 0.34375 -2.601562 0.398438 -2.90625 0.515625 -3.1875 C 0.628906 -3.476562 0.785156 -3.734375 0.984375 -3.953125 C 1.191406 -4.171875 1.429688 -4.34375 1.703125 -4.46875 C 1.984375 -4.601562 2.289062 -4.671875 2.625 -4.671875 C 2.945312 -4.671875 3.25 -4.601562 3.53125 -4.46875 C 3.8125 -4.34375 4.050781 -4.171875 4.25 -3.953125 C 4.457031 -3.734375 4.617188 -3.476562 4.734375 -3.1875 C 4.847656 -2.90625 4.90625 -2.601562 4.90625 -2.28125 C 4.90625 -1.96875 4.847656 -1.664062 4.734375 -1.375 C 4.617188 -1.082031 4.457031 -0.828125 4.25 -0.609375 C 4.050781 -0.398438 3.8125 -0.226562 3.53125 -0.09375 C 3.257812 0.03125 2.957031 0.09375 2.625 0.09375 Z M 0.953125 -2.28125 C 0.953125 -2.019531 0.992188 -1.773438 1.078125 -1.546875 C 1.171875 -1.328125 1.289062 -1.132812 1.4375 -0.96875 C 1.59375 -0.800781 1.769531 -0.671875 1.96875 -0.578125 C 2.175781 -0.484375 2.394531 -0.4375 2.625 -0.4375 C 2.851562 -0.4375 3.066406 -0.484375 3.265625 -0.578125 C 3.460938 -0.679688 3.640625 -0.816406 3.796875 -0.984375 C 3.953125 -1.148438 4.070312 -1.34375 4.15625 -1.5625 C 4.25 -1.789062 4.296875 -2.035156 4.296875 -2.296875 C 4.296875 -2.546875 4.25 -2.78125 4.15625 -3 C 4.070312 -3.226562 3.953125 -3.425781 3.796875 -3.59375 C 3.640625 -3.757812 3.460938 -3.890625 3.265625 -3.984375 C 3.066406 -4.085938 2.851562 -4.140625 2.625 -4.140625 C 2.394531 -4.140625 2.175781 -4.085938 1.96875 -3.984375 C 1.769531 -3.890625 1.59375 -3.757812 1.4375 -3.59375 C 1.289062 -3.425781 1.171875 -3.226562 1.078125 -3 C 0.992188 -2.769531 0.953125 -2.53125 0.953125 -2.28125 Z M 0.953125 -2.28125 "/></g></g></g><g fill="#ffffff" fill-opacity="1"><g transform="translate(190.956752, 27.673525)"><g><path d="M 2.953125 -4.0625 C 2.546875 -4.050781 2.191406 -3.9375 1.890625 -3.71875 C 1.585938 -3.507812 1.378906 -3.222656 1.265625 -2.859375 L 1.265625 0 L 0.65625 0 L 0.65625 -4.59375 L 1.21875 -4.59375 L 1.21875 -3.484375 C 1.394531 -3.835938 1.625 -4.113281 1.90625 -4.3125 C 2.195312 -4.519531 2.507812 -4.625 2.84375 -4.625 C 2.882812 -4.625 2.921875 -4.617188 2.953125 -4.609375 Z M 2.953125 -4.0625 "/></g></g></g><g fill="#ffffff" fill-opacity="1"><g transform="translate(152.966927, 36.489851)"><g><path d="M 5.71875 -6.25 L 5.71875 0 L 5.109375 0 L 5.109375 -2.921875 L 1.40625 -2.921875 L 1.40625 0 L 0.78125 0 L 0.78125 -6.25 L 1.40625 -6.25 L 1.40625 -3.46875 L 5.109375 -3.46875 L 5.109375 -6.25 Z M 5.71875 -6.25 "/></g></g></g><g fill="#ffffff" fill-opacity="1"><g transform="translate(159.473423, 36.489851)"><g><path d="M 2.625 0.09375 C 2.28125 0.09375 1.96875 0.03125 1.6875 -0.09375 C 1.414062 -0.226562 1.175781 -0.398438 0.96875 -0.609375 C 0.769531 -0.828125 0.613281 -1.082031 0.5 -1.375 C 0.394531 -1.664062 0.34375 -1.96875 0.34375 -2.28125 C 0.34375 -2.601562 0.398438 -2.90625 0.515625 -3.1875 C 0.628906 -3.476562 0.785156 -3.734375 0.984375 -3.953125 C 1.191406 -4.171875 1.429688 -4.34375 1.703125 -4.46875 C 1.984375 -4.601562 2.289062 -4.671875 2.625 -4.671875 C 2.945312 -4.671875 3.25 -4.601562 3.53125 -4.46875 C 3.8125 -4.34375 4.050781 -4.171875 4.25 -3.953125 C 4.457031 -3.734375 4.617188 -3.476562 4.734375 -3.1875 C 4.847656 -2.90625 4.90625 -2.601562 4.90625 -2.28125 C 4.90625 -1.96875 4.847656 -1.664062 4.734375 -1.375 C 4.617188 -1.082031 4.457031 -0.828125 4.25 -0.609375 C 4.050781 -0.398438 3.8125 -0.226562 3.53125 -0.09375 C 3.257812 0.03125 2.957031 0.09375 2.625 0.09375 Z M 0.953125 -2.28125 C 0.953125 -2.019531 0.992188 -1.773438 1.078125 -1.546875 C 1.171875 -1.328125 1.289062 -1.132812 1.4375 -0.96875 C 1.59375 -0.800781 1.769531 -0.671875 1.96875 -0.578125 C 2.175781 -0.484375 2.394531 -0.4375 2.625 -0.4375 C 2.851562 -0.4375 3.066406 -0.484375 3.265625 -0.578125 C 3.460938 -0.679688 3.640625 -0.816406 3.796875 -0.984375 C 3.953125 -1.148438 4.070312 -1.34375 4.15625 -1.5625 C 4.25 -1.789062 4.296875 -2.035156 4.296875 -2.296875 C 4.296875 -2.546875 4.25 -2.78125 4.15625 -3 C 4.070312 -3.226562 3.953125 -3.425781 3.796875 -3.59375 C 3.640625 -3.757812 3.460938 -3.890625 3.265625 -3.984375 C 3.066406 -4.085938 2.851562 -4.140625 2.625 -4.140625 C 2.394531 -4.140625 2.175781 -4.085938 1.96875 -3.984375 C 1.769531 -3.890625 1.59375 -3.757812 1.4375 -3.59375 C 1.289062 -3.425781 1.171875 -3.226562 1.078125 -3 C 0.992188 -2.769531 0.953125 -2.53125 0.953125 -2.28125 Z M 0.953125 -2.28125 "/></g></g></g><g fill="#ffffff" fill-opacity="1"><g transform="translate(164.71917, 36.489851)"><g><path d="M 2.09375 0.09375 C 1.59375 0.09375 1.21875 -0.0703125 0.96875 -0.40625 C 0.726562 -0.738281 0.609375 -1.234375 0.609375 -1.890625 L 0.609375 -4.59375 L 1.21875 -4.59375 L 1.21875 -2 C 1.21875 -0.957031 1.570312 -0.4375 2.28125 -0.4375 C 2.457031 -0.4375 2.628906 -0.460938 2.796875 -0.515625 C 2.972656 -0.578125 3.128906 -0.664062 3.265625 -0.78125 C 3.410156 -0.894531 3.539062 -1.023438 3.65625 -1.171875 C 3.769531 -1.328125 3.863281 -1.503906 3.9375 -1.703125 L 3.9375 -4.59375 L 4.53125 -4.59375 L 4.53125 -0.78125 C 4.53125 -0.613281 4.601562 -0.53125 4.75 -0.53125 L 4.75 0 C 4.675781 0.0078125 4.617188 0.015625 4.578125 0.015625 C 4.535156 0.015625 4.503906 0.015625 4.484375 0.015625 C 4.347656 0.015625 4.234375 -0.03125 4.140625 -0.125 C 4.054688 -0.21875 4.015625 -0.347656 4.015625 -0.515625 L 4.015625 -1.046875 C 3.804688 -0.679688 3.53125 -0.398438 3.1875 -0.203125 C 2.84375 -0.00390625 2.476562 0.09375 2.09375 0.09375 Z M 2.09375 0.09375 "/></g></g></g><g fill="#ffffff" fill-opacity="1"><g transform="translate(169.956106, 36.489851)"><g><path d="M 2.1875 0.09375 C 1.820312 0.09375 1.46875 0.0351562 1.125 -0.078125 C 0.789062 -0.203125 0.5 -0.375 0.25 -0.59375 L 0.53125 -1 C 0.789062 -0.789062 1.050781 -0.632812 1.3125 -0.53125 C 1.582031 -0.425781 1.867188 -0.375 2.171875 -0.375 C 2.546875 -0.375 2.84375 -0.445312 3.0625 -0.59375 C 3.28125 -0.738281 3.390625 -0.953125 3.390625 -1.234375 C 3.390625 -1.359375 3.359375 -1.460938 3.296875 -1.546875 C 3.242188 -1.640625 3.160156 -1.71875 3.046875 -1.78125 C 2.929688 -1.84375 2.785156 -1.898438 2.609375 -1.953125 C 2.441406 -2.003906 2.242188 -2.054688 2.015625 -2.109375 C 1.742188 -2.171875 1.507812 -2.234375 1.3125 -2.296875 C 1.125 -2.359375 0.96875 -2.429688 0.84375 -2.515625 C 0.71875 -2.597656 0.625 -2.695312 0.5625 -2.8125 C 0.5 -2.9375 0.46875 -3.09375 0.46875 -3.28125 C 0.46875 -3.507812 0.507812 -3.710938 0.59375 -3.890625 C 0.6875 -4.066406 0.8125 -4.210938 0.96875 -4.328125 C 1.125 -4.441406 1.304688 -4.523438 1.515625 -4.578125 C 1.722656 -4.640625 1.945312 -4.671875 2.1875 -4.671875 C 2.539062 -4.671875 2.859375 -4.613281 3.140625 -4.5 C 3.429688 -4.382812 3.664062 -4.234375 3.84375 -4.046875 L 3.546875 -3.6875 C 3.378906 -3.863281 3.171875 -3.992188 2.921875 -4.078125 C 2.679688 -4.171875 2.429688 -4.21875 2.171875 -4.21875 C 2.015625 -4.21875 1.867188 -4.203125 1.734375 -4.171875 C 1.597656 -4.140625 1.476562 -4.085938 1.375 -4.015625 C 1.269531 -3.941406 1.1875 -3.851562 1.125 -3.75 C 1.070312 -3.644531 1.046875 -3.515625 1.046875 -3.359375 C 1.046875 -3.242188 1.0625 -3.144531 1.09375 -3.0625 C 1.132812 -2.988281 1.203125 -2.921875 1.296875 -2.859375 C 1.390625 -2.804688 1.507812 -2.757812 1.65625 -2.71875 C 1.800781 -2.675781 1.976562 -2.628906 2.1875 -2.578125 C 2.476562 -2.503906 2.734375 -2.429688 2.953125 -2.359375 C 3.179688 -2.296875 3.367188 -2.21875 3.515625 -2.125 C 3.671875 -2.03125 3.785156 -1.914062 3.859375 -1.78125 C 3.929688 -1.644531 3.96875 -1.476562 3.96875 -1.28125 C 3.96875 -0.863281 3.804688 -0.53125 3.484375 -0.28125 C 3.160156 -0.03125 2.726562 0.09375 2.1875 0.09375 Z M 2.1875 0.09375 "/></g></g></g><g fill="#ffffff" fill-opacity="1"><g transform="translate(174.249686, 36.489851)"><g><path d="M 2.640625 0.09375 C 2.304688 0.09375 2 0.03125 1.71875 -0.09375 C 1.4375 -0.226562 1.191406 -0.40625 0.984375 -0.625 C 0.785156 -0.84375 0.628906 -1.09375 0.515625 -1.375 C 0.398438 -1.664062 0.34375 -1.976562 0.34375 -2.3125 C 0.34375 -2.632812 0.398438 -2.9375 0.515625 -3.21875 C 0.628906 -3.5 0.785156 -3.75 0.984375 -3.96875 C 1.191406 -4.1875 1.4375 -4.359375 1.71875 -4.484375 C 2 -4.609375 2.304688 -4.671875 2.640625 -4.671875 C 2.972656 -4.671875 3.273438 -4.609375 3.546875 -4.484375 C 3.828125 -4.359375 4.066406 -4.1875 4.265625 -3.96875 C 4.472656 -3.75 4.628906 -3.5 4.734375 -3.21875 C 4.847656 -2.9375 4.90625 -2.632812 4.90625 -2.3125 C 4.90625 -2.269531 4.90625 -2.222656 4.90625 -2.171875 C 4.90625 -2.128906 4.90625 -2.097656 4.90625 -2.078125 L 0.96875 -2.078125 C 0.988281 -1.828125 1.046875 -1.597656 1.140625 -1.390625 C 1.234375 -1.179688 1.359375 -1 1.515625 -0.84375 C 1.671875 -0.695312 1.84375 -0.582031 2.03125 -0.5 C 2.226562 -0.414062 2.441406 -0.375 2.671875 -0.375 C 2.816406 -0.375 2.960938 -0.394531 3.109375 -0.4375 C 3.253906 -0.476562 3.390625 -0.53125 3.515625 -0.59375 C 3.640625 -0.664062 3.75 -0.753906 3.84375 -0.859375 C 3.945312 -0.960938 4.023438 -1.078125 4.078125 -1.203125 L 4.59375 -1.0625 C 4.53125 -0.882812 4.429688 -0.726562 4.296875 -0.59375 C 4.171875 -0.457031 4.019531 -0.335938 3.84375 -0.234375 C 3.675781 -0.128906 3.488281 -0.0507812 3.28125 0 C 3.082031 0.0625 2.867188 0.09375 2.640625 0.09375 Z M 4.328125 -2.53125 C 4.316406 -2.78125 4.257812 -3.003906 4.15625 -3.203125 C 4.0625 -3.410156 3.9375 -3.585938 3.78125 -3.734375 C 3.632812 -3.878906 3.460938 -3.992188 3.265625 -4.078125 C 3.078125 -4.160156 2.867188 -4.203125 2.640625 -4.203125 C 2.421875 -4.203125 2.207031 -4.160156 2 -4.078125 C 1.800781 -3.992188 1.628906 -3.878906 1.484375 -3.734375 C 1.335938 -3.585938 1.21875 -3.410156 1.125 -3.203125 C 1.03125 -3.003906 0.972656 -2.78125 0.953125 -2.53125 Z M 4.328125 -2.53125 "/></g></g></g><g fill="#ffffff" fill-opacity="1"><g transform="translate(179.424908, 36.489851)"><g><path d="M 4.515625 0 L 3.921875 0 L 3.921875 -2.5625 C 3.921875 -3.082031 3.832031 -3.472656 3.65625 -3.734375 C 3.476562 -3.992188 3.210938 -4.125 2.859375 -4.125 C 2.691406 -4.125 2.523438 -4.085938 2.359375 -4.015625 C 2.191406 -3.953125 2.035156 -3.859375 1.890625 -3.734375 C 1.742188 -3.617188 1.613281 -3.484375 1.5 -3.328125 C 1.394531 -3.171875 1.316406 -3 1.265625 -2.8125 L 1.265625 0 L 0.65625 0 L 0.65625 -6.4375 L 1.265625 -6.4375 L 1.265625 -3.546875 C 1.441406 -3.898438 1.691406 -4.175781 2.015625 -4.375 C 2.335938 -4.570312 2.6875 -4.671875 3.0625 -4.671875 C 3.332031 -4.671875 3.554688 -4.617188 3.734375 -4.515625 C 3.921875 -4.421875 4.070312 -4.285156 4.1875 -4.109375 C 4.300781 -3.941406 4.382812 -3.734375 4.4375 -3.484375 C 4.488281 -3.242188 4.515625 -2.976562 4.515625 -2.6875 Z M 4.515625 0 "/></g></g></g><g fill="#ffffff" fill-opacity="1"><g transform="translate(184.564861, 36.489851)"><g><path d="M 2.625 0.09375 C 2.28125 0.09375 1.96875 0.03125 1.6875 -0.09375 C 1.414062 -0.226562 1.175781 -0.398438 0.96875 -0.609375 C 0.769531 -0.828125 0.613281 -1.082031 0.5 -1.375 C 0.394531 -1.664062 0.34375 -1.96875 0.34375 -2.28125 C 0.34375 -2.601562 0.398438 -2.90625 0.515625 -3.1875 C 0.628906 -3.476562 0.785156 -3.734375 0.984375 -3.953125 C 1.191406 -4.171875 1.429688 -4.34375 1.703125 -4.46875 C 1.984375 -4.601562 2.289062 -4.671875 2.625 -4.671875 C 2.945312 -4.671875 3.25 -4.601562 3.53125 -4.46875 C 3.8125 -4.34375 4.050781 -4.171875 4.25 -3.953125 C 4.457031 -3.734375 4.617188 -3.476562 4.734375 -3.1875 C 4.847656 -2.90625 4.90625 -2.601562 4.90625 -2.28125 C 4.90625 -1.96875 4.847656 -1.664062 4.734375 -1.375 C 4.617188 -1.082031 4.457031 -0.828125 4.25 -0.609375 C 4.050781 -0.398438 3.8125 -0.226562 3.53125 -0.09375 C 3.257812 0.03125 2.957031 0.09375 2.625 0.09375 Z M 0.953125 -2.28125 C 0.953125 -2.019531 0.992188 -1.773438 1.078125 -1.546875 C 1.171875 -1.328125 1.289062 -1.132812 1.4375 -0.96875 C 1.59375 -0.800781 1.769531 -0.671875 1.96875 -0.578125 C 2.175781 -0.484375 2.394531 -0.4375 2.625 -0.4375 C 2.851562 -0.4375 3.066406 -0.484375 3.265625 -0.578125 C 3.460938 -0.679688 3.640625 -0.816406 3.796875 -0.984375 C 3.953125 -1.148438 4.070312 -1.34375 4.15625 -1.5625 C 4.25 -1.789062 4.296875 -2.035156 4.296875 -2.296875 C 4.296875 -2.546875 4.25 -2.78125 4.15625 -3 C 4.070312 -3.226562 3.953125 -3.425781 3.796875 -3.59375 C 3.640625 -3.757812 3.460938 -3.890625 3.265625 -3.984375 C 3.066406 -4.085938 2.851562 -4.140625 2.625 -4.140625 C 2.394531 -4.140625 2.175781 -4.085938 1.96875 -3.984375 C 1.769531 -3.890625 1.59375 -3.757812 1.4375 -3.59375 C 1.289062 -3.425781 1.171875 -3.226562 1.078125 -3 C 0.992188 -2.769531 0.953125 -2.53125 0.953125 -2.28125 Z M 0.953125 -2.28125 "/></g></g></g><g fill="#ffffff" fill-opacity="1"><g transform="translate(189.810609, 36.489851)"><g><path d="M 0.6875 -6.4375 L 1.28125 -6.4375 L 1.28125 -1.046875 C 1.28125 -0.867188 1.328125 -0.734375 1.421875 -0.640625 C 1.515625 -0.546875 1.648438 -0.5 1.828125 -0.5 C 1.890625 -0.5 1.960938 -0.503906 2.046875 -0.515625 C 2.140625 -0.535156 2.222656 -0.5625 2.296875 -0.59375 L 2.40625 -0.109375 C 2.289062 -0.0546875 2.148438 -0.0195312 1.984375 0 C 1.828125 0.03125 1.691406 0.046875 1.578125 0.046875 C 1.296875 0.046875 1.078125 -0.03125 0.921875 -0.1875 C 0.765625 -0.34375 0.6875 -0.5625 0.6875 -0.84375 Z M 0.6875 -6.4375 "/></g></g></g><g fill="#ffffff" fill-opacity="1"><g transform="translate(192.208666, 36.489851)"><g><path d="M 2.546875 0.09375 C 2.234375 0.09375 1.941406 0.0234375 1.671875 -0.109375 C 1.398438 -0.242188 1.164062 -0.414062 0.96875 -0.625 C 0.769531 -0.84375 0.617188 -1.09375 0.515625 -1.375 C 0.410156 -1.664062 0.359375 -1.96875 0.359375 -2.28125 C 0.359375 -2.601562 0.410156 -2.910156 0.515625 -3.203125 C 0.617188 -3.492188 0.757812 -3.75 0.9375 -3.96875 C 1.125 -4.1875 1.34375 -4.359375 1.59375 -4.484375 C 1.851562 -4.609375 2.140625 -4.671875 2.453125 -4.671875 C 2.835938 -4.671875 3.179688 -4.566406 3.484375 -4.359375 C 3.785156 -4.160156 4.019531 -3.914062 4.1875 -3.625 L 4.1875 -6.4375 L 4.78125 -6.4375 L 4.78125 -0.78125 C 4.78125 -0.613281 4.851562 -0.53125 5 -0.53125 L 5 0 C 4.90625 0.0195312 4.832031 0.03125 4.78125 0.03125 C 4.644531 0.03125 4.519531 -0.015625 4.40625 -0.109375 C 4.300781 -0.203125 4.25 -0.3125 4.25 -0.4375 L 4.25 -0.890625 C 4.070312 -0.585938 3.828125 -0.347656 3.515625 -0.171875 C 3.203125 0.00390625 2.878906 0.09375 2.546875 0.09375 Z M 2.671875 -0.4375 C 2.828125 -0.4375 2.988281 -0.460938 3.15625 -0.515625 C 3.320312 -0.578125 3.476562 -0.660156 3.625 -0.765625 C 3.769531 -0.867188 3.894531 -0.988281 4 -1.125 C 4.101562 -1.269531 4.164062 -1.421875 4.1875 -1.578125 L 4.1875 -3 C 4.125 -3.15625 4.035156 -3.300781 3.921875 -3.4375 C 3.816406 -3.570312 3.691406 -3.691406 3.546875 -3.796875 C 3.398438 -3.910156 3.242188 -3.992188 3.078125 -4.046875 C 2.921875 -4.109375 2.757812 -4.140625 2.59375 -4.140625 C 2.351562 -4.140625 2.128906 -4.085938 1.921875 -3.984375 C 1.722656 -3.878906 1.550781 -3.738281 1.40625 -3.5625 C 1.269531 -3.382812 1.160156 -3.1875 1.078125 -2.96875 C 1.003906 -2.75 0.96875 -2.519531 0.96875 -2.28125 C 0.96875 -2.03125 1.007812 -1.796875 1.09375 -1.578125 C 1.1875 -1.359375 1.304688 -1.160156 1.453125 -0.984375 C 1.609375 -0.816406 1.789062 -0.679688 2 -0.578125 C 2.207031 -0.484375 2.429688 -0.4375 2.671875 -0.4375 Z M 2.671875 -0.4375 "/></g></g></g><g fill="#ffffff" fill-opacity="1"><g transform="translate(197.692458, 36.489851)"><g/></g></g><g fill="#ffffff" fill-opacity="1"><g transform="translate(199.940642, 36.489851)"><g><path d="M 0.78125 0 L 0.78125 -6.25 L 4.890625 -6.25 L 4.890625 -5.703125 L 1.40625 -5.703125 L 1.40625 -3.40625 L 4.34375 -3.40625 L 4.34375 -2.90625 L 1.40625 -2.90625 L 1.40625 0 Z M 0.78125 0 "/></g></g></g><g fill="#ffffff" fill-opacity="1"><g transform="translate(205.133498, 36.489851)"><g><path d="M 0.65625 0 L 0.65625 -4.59375 L 1.265625 -4.59375 L 1.265625 0 Z M 0.65625 -5.546875 L 0.65625 -6.4375 L 1.265625 -6.4375 L 1.265625 -5.546875 Z M 0.65625 -5.546875 "/></g></g></g><g fill="#ffffff" fill-opacity="1"><g transform="translate(207.055466, 36.489851)"><g><path d="M 4.515625 0 L 3.921875 0 L 3.921875 -2.5625 C 3.921875 -3.113281 3.835938 -3.507812 3.671875 -3.75 C 3.515625 -4 3.269531 -4.125 2.9375 -4.125 C 2.757812 -4.125 2.582031 -4.09375 2.40625 -4.03125 C 2.226562 -3.96875 2.0625 -3.875 1.90625 -3.75 C 1.757812 -3.632812 1.628906 -3.492188 1.515625 -3.328125 C 1.398438 -3.171875 1.316406 -3 1.265625 -2.8125 L 1.265625 0 L 0.65625 0 L 0.65625 -4.59375 L 1.203125 -4.59375 L 1.203125 -3.546875 C 1.390625 -3.878906 1.65625 -4.148438 2 -4.359375 C 2.351562 -4.566406 2.738281 -4.671875 3.15625 -4.671875 C 3.40625 -4.671875 3.617188 -4.625 3.796875 -4.53125 C 3.972656 -4.4375 4.113281 -4.300781 4.21875 -4.125 C 4.320312 -3.957031 4.394531 -3.75 4.4375 -3.5 C 4.488281 -3.257812 4.515625 -2.988281 4.515625 -2.6875 Z M 4.515625 0 "/></g></g></g><g fill="#ffffff" fill-opacity="1"><g transform="translate(212.19542, 36.489851)"><g><path d="M 1.8125 0.09375 C 1.59375 0.09375 1.390625 0.0546875 1.203125 -0.015625 C 1.023438 -0.0859375 0.863281 -0.1875 0.71875 -0.3125 C 0.582031 -0.445312 0.476562 -0.601562 0.40625 -0.78125 C 0.332031 -0.957031 0.296875 -1.144531 0.296875 -1.34375 C 0.296875 -1.539062 0.34375 -1.722656 0.4375 -1.890625 C 0.53125 -2.066406 0.660156 -2.210938 0.828125 -2.328125 C 0.992188 -2.453125 1.191406 -2.546875 1.421875 -2.609375 C 1.660156 -2.679688 1.925781 -2.71875 2.21875 -2.71875 C 2.445312 -2.71875 2.679688 -2.695312 2.921875 -2.65625 C 3.160156 -2.613281 3.375 -2.554688 3.5625 -2.484375 L 3.5625 -2.90625 C 3.5625 -3.300781 3.445312 -3.617188 3.21875 -3.859375 C 2.988281 -4.097656 2.675781 -4.21875 2.28125 -4.21875 C 2.039062 -4.21875 1.796875 -4.171875 1.546875 -4.078125 C 1.304688 -3.984375 1.054688 -3.847656 0.796875 -3.671875 L 0.59375 -4.078125 C 1.1875 -4.472656 1.757812 -4.671875 2.3125 -4.671875 C 2.894531 -4.671875 3.347656 -4.507812 3.671875 -4.1875 C 4.003906 -3.863281 4.171875 -3.414062 4.171875 -2.84375 L 4.171875 -0.78125 C 4.171875 -0.613281 4.242188 -0.53125 4.390625 -0.53125 L 4.390625 0 C 4.285156 0.0195312 4.207031 0.03125 4.15625 0.03125 C 4.007812 0.03125 3.890625 -0.00390625 3.796875 -0.078125 C 3.710938 -0.160156 3.671875 -0.269531 3.671875 -0.40625 L 3.640625 -0.765625 C 3.429688 -0.492188 3.164062 -0.28125 2.84375 -0.125 C 2.53125 0.0195312 2.1875 0.09375 1.8125 0.09375 Z M 1.953125 -0.375 C 2.265625 -0.375 2.550781 -0.429688 2.8125 -0.546875 C 3.070312 -0.660156 3.269531 -0.816406 3.40625 -1.015625 C 3.457031 -1.066406 3.492188 -1.125 3.515625 -1.1875 C 3.546875 -1.25 3.5625 -1.304688 3.5625 -1.359375 L 3.5625 -2.109375 C 3.363281 -2.179688 3.15625 -2.238281 2.9375 -2.28125 C 2.726562 -2.320312 2.515625 -2.34375 2.296875 -2.34375 C 1.867188 -2.34375 1.519531 -2.253906 1.25 -2.078125 C 0.988281 -1.898438 0.859375 -1.671875 0.859375 -1.390625 C 0.859375 -1.242188 0.882812 -1.109375 0.9375 -0.984375 C 1 -0.859375 1.078125 -0.75 1.171875 -0.65625 C 1.273438 -0.570312 1.394531 -0.503906 1.53125 -0.453125 C 1.664062 -0.398438 1.804688 -0.375 1.953125 -0.375 Z M 1.953125 -0.375 "/></g></g></g><g fill="#ffffff" fill-opacity="1"><g transform="translate(217.000346, 36.489851)"><g><path d="M 4.515625 0 L 3.921875 0 L 3.921875 -2.5625 C 3.921875 -3.113281 3.835938 -3.507812 3.671875 -3.75 C 3.515625 -4 3.269531 -4.125 2.9375 -4.125 C 2.757812 -4.125 2.582031 -4.09375 2.40625 -4.03125 C 2.226562 -3.96875 2.0625 -3.875 1.90625 -3.75 C 1.757812 -3.632812 1.628906 -3.492188 1.515625 -3.328125 C 1.398438 -3.171875 1.316406 -3 1.265625 -2.8125 L 1.265625 0 L 0.65625 0 L 0.65625 -4.59375 L 1.203125 -4.59375 L 1.203125 -3.546875 C 1.390625 -3.878906 1.65625 -4.148438 2 -4.359375 C 2.351562 -4.566406 2.738281 -4.671875 3.15625 -4.671875 C 3.40625 -4.671875 3.617188 -4.625 3.796875 -4.53125 C 3.972656 -4.4375 4.113281 -4.300781 4.21875 -4.125 C 4.320312 -3.957031 4.394531 -3.75 4.4375 -3.5 C 4.488281 -3.257812 4.515625 -2.988281 4.515625 -2.6875 Z M 4.515625 0 "/></g></g></g><g fill="#ffffff" fill-opacity="1"><g transform="translate(222.1403, 36.489851)"><g><path d="M 0.34375 -2.3125 C 0.34375 -2.632812 0.394531 -2.9375 0.5 -3.21875 C 0.613281 -3.507812 0.769531 -3.757812 0.96875 -3.96875 C 1.175781 -4.1875 1.421875 -4.359375 1.703125 -4.484375 C 1.984375 -4.609375 2.296875 -4.671875 2.640625 -4.671875 C 3.078125 -4.671875 3.457031 -4.570312 3.78125 -4.375 C 4.101562 -4.175781 4.347656 -3.910156 4.515625 -3.578125 L 3.9375 -3.390625 C 3.800781 -3.628906 3.617188 -3.8125 3.390625 -3.9375 C 3.160156 -4.070312 2.90625 -4.140625 2.625 -4.140625 C 2.382812 -4.140625 2.160156 -4.09375 1.953125 -4 C 1.753906 -3.90625 1.578125 -3.773438 1.421875 -3.609375 C 1.273438 -3.453125 1.160156 -3.257812 1.078125 -3.03125 C 0.992188 -2.8125 0.953125 -2.570312 0.953125 -2.3125 C 0.953125 -2.050781 0.992188 -1.804688 1.078125 -1.578125 C 1.171875 -1.347656 1.289062 -1.148438 1.4375 -0.984375 C 1.59375 -0.816406 1.769531 -0.679688 1.96875 -0.578125 C 2.175781 -0.484375 2.394531 -0.4375 2.625 -0.4375 C 2.769531 -0.4375 2.914062 -0.457031 3.0625 -0.5 C 3.207031 -0.539062 3.335938 -0.597656 3.453125 -0.671875 C 3.578125 -0.742188 3.679688 -0.828125 3.765625 -0.921875 C 3.859375 -1.015625 3.925781 -1.113281 3.96875 -1.21875 L 4.5625 -1.046875 C 4.488281 -0.878906 4.390625 -0.726562 4.265625 -0.59375 C 4.148438 -0.457031 4.007812 -0.335938 3.84375 -0.234375 C 3.675781 -0.128906 3.488281 -0.0507812 3.28125 0 C 3.082031 0.0625 2.875 0.09375 2.65625 0.09375 C 2.320312 0.09375 2.007812 0.03125 1.71875 -0.09375 C 1.4375 -0.226562 1.191406 -0.40625 0.984375 -0.625 C 0.785156 -0.84375 0.628906 -1.09375 0.515625 -1.375 C 0.398438 -1.664062 0.34375 -1.976562 0.34375 -2.3125 Z M 0.34375 -2.3125 "/></g></g></g><g fill="#ffffff" fill-opacity="1"><g transform="translate(226.980494, 36.489851)"><g><path d="M 2.640625 0.09375 C 2.304688 0.09375 2 0.03125 1.71875 -0.09375 C 1.4375 -0.226562 1.191406 -0.40625 0.984375 -0.625 C 0.785156 -0.84375 0.628906 -1.09375 0.515625 -1.375 C 0.398438 -1.664062 0.34375 -1.976562 0.34375 -2.3125 C 0.34375 -2.632812 0.398438 -2.9375 0.515625 -3.21875 C 0.628906 -3.5 0.785156 -3.75 0.984375 -3.96875 C 1.191406 -4.1875 1.4375 -4.359375 1.71875 -4.484375 C 2 -4.609375 2.304688 -4.671875 2.640625 -4.671875 C 2.972656 -4.671875 3.273438 -4.609375 3.546875 -4.484375 C 3.828125 -4.359375 4.066406 -4.1875 4.265625 -3.96875 C 4.472656 -3.75 4.628906 -3.5 4.734375 -3.21875 C 4.847656 -2.9375 4.90625 -2.632812 4.90625 -2.3125 C 4.90625 -2.269531 4.90625 -2.222656 4.90625 -2.171875 C 4.90625 -2.128906 4.90625 -2.097656 4.90625 -2.078125 L 0.96875 -2.078125 C 0.988281 -1.828125 1.046875 -1.597656 1.140625 -1.390625 C 1.234375 -1.179688 1.359375 -1 1.515625 -0.84375 C 1.671875 -0.695312 1.84375 -0.582031 2.03125 -0.5 C 2.226562 -0.414062 2.441406 -0.375 2.671875 -0.375 C 2.816406 -0.375 2.960938 -0.394531 3.109375 -0.4375 C 3.253906 -0.476562 3.390625 -0.53125 3.515625 -0.59375 C 3.640625 -0.664062 3.75 -0.753906 3.84375 -0.859375 C 3.945312 -0.960938 4.023438 -1.078125 4.078125 -1.203125 L 4.59375 -1.0625 C 4.53125 -0.882812 4.429688 -0.726562 4.296875 -0.59375 C 4.171875 -0.457031 4.019531 -0.335938 3.84375 -0.234375 C 3.675781 -0.128906 3.488281 -0.0507812 3.28125 0 C 3.082031 0.0625 2.867188 0.09375 2.640625 0.09375 Z M 4.328125 -2.53125 C 4.316406 -2.78125 4.257812 -3.003906 4.15625 -3.203125 C 4.0625 -3.410156 3.9375 -3.585938 3.78125 -3.734375 C 3.632812 -3.878906 3.460938 -3.992188 3.265625 -4.078125 C 3.078125 -4.160156 2.867188 -4.203125 2.640625 -4.203125 C 2.421875 -4.203125 2.207031 -4.160156 2 -4.078125 C 1.800781 -3.992188 1.628906 -3.878906 1.484375 -3.734375 C 1.335938 -3.585938 1.21875 -3.410156 1.125 -3.203125 C 1.03125 -3.003906 0.972656 -2.78125 0.953125 -2.53125 Z M 4.328125 -2.53125 "/></g></g></g></svg>